<?xml version="1.0" encoding="UTF-8"?>
<svg version="1.1" viewBox="0 0 152 72" xmlns="http://www.w3.org/2000/svg">
 <g aria-label="1234567890128">
  <path d="m11.452 58.355-2.3503 2.0312v-1.5755l2.2331-1.875h1.3867v9.2057h-1.2695z"/>
  <path d="m28.607 64.963h4.1797v1.1784h-5.4102q-0.05208-0.5013-0.05208-0.73568 0-1.237 0.37109-1.9987 0.29297-0.59896 0.76823-1.0612 0.48177-0.46875 1.4453-1.0742 1.0221-0.65104 1.3737-1.0482 0.35807-0.39714 0.35807-0.88542 0-0.56641-0.4362-0.98958-0.4362-0.42969-1.0221-0.42969-1.3021 0-2.6888 0.96354v-1.3672q1.0807-0.76172 2.513-0.76172 1.3216 0 2.1094 0.6901 0.79427 0.6901 0.79427 1.8359 0 0.82682-0.41016 1.4453-0.25391 0.39062-0.59896 0.67057-0.33854 0.27344-1.4583 0.99609-0.97656 0.63802-1.4062 1.1979-0.42969 0.5599-0.42969 1.1979z"/>
  <path d="m39.923 58.075h-3.9453v-1.1393h5.5599v1.263l-2.3568 2.3503q1.3346 0.11068 2.0378 0.8138 0.70312 0.69661 0.70312 1.901 0 1.3346-0.97005 2.1615-0.96354 0.82031-2.5391 0.82031-1.1458 0-2.4349-0.54688v-1.2565q1.0547 0.65104 2.3047 0.65104 1.1133 0 1.7383-0.50781 0.63151-0.51432 0.63151-1.4193 0-0.71615-0.56641-1.1849t-1.4388-0.46875h-1.1198v-0.97005z"/>
  <path d="m49.487 62.965h1.1458v1.1784h-1.1458v1.9987h-1.2695v-1.9987h-3.5026v-1.3802l2.7083-5.8268h1.3086l-2.793 6.0286h2.2786v-1.9206h1.2695z"/>
  <path d="m55.236 58.088-0.15625 1.8424 0.33203-0.0065q1.6927 0 2.6367 0.77474t0.94401 2.1615q0 2.0247-1.9792 2.8906-1.0872 0.47526-3.1836 0.47526v-1.1198h0.13672l0.65104 0.0065q0.57292 0 1.0807-0.09766 0.95703-0.19531 1.4909-0.76172 0.53385-0.57292 0.53385-1.4062 0-1.7708-2.2852-1.7708-0.54688 0-0.97005 0.04557l-0.46224 0.05208q-0.03255 0.0065-0.17578 0.01953l0.27995-4.2578h4.6354v1.1523z"/>
  <path d="m65.659 56.936h1.6602l-0.14974 0.14323q-1.6276 1.556-2.2786 2.4284l-0.55338 0.75521q-0.03255 0.03906-0.18229 0.23438 0.66406-0.27344 1.1784-0.27344 1.224 0 2.0573 0.85286 0.83984 0.85286 0.83984 2.0964 0 1.3867-0.84635 2.2331-0.84635 0.83984-2.2461 0.83984-1.4714 0-2.2852-0.82031-0.8138-0.82682-0.8138-2.3242 0-0.92448 0.32552-1.7578 0.32552-0.83333 1.0938-1.8945 0.90495-1.2435 2.2005-2.513zm-0.50781 4.4531q-0.80729 0-1.3346 0.50781-0.52083 0.50781-0.52083 1.2956 0 0.83333 0.51432 1.3607 0.51432 0.52734 1.3216 0.52734 0.80729 0 1.3216-0.52734 0.52083-0.52734 0.52083-1.3542 0-0.77474-0.52083-1.2891-0.52083-0.52083-1.3021-0.52083z"/>
  <path d="m75.425 58.075h-4.5312v-1.1393h6.0547v0.36458q0 0.67057-0.23438 1.1654-0.23438 0.48828-0.96354 1.3411-1.3281 1.556-1.7969 2.5391-0.46875 0.98307-0.46875 2.2005v1.5951h-1.2695v-1.5951q0-1.1784 0.5599-2.4609 0.5599-1.2891 1.5755-2.4544l0.65104-0.74219q0.35156-0.40365 0.42318-0.8138z"/>
  <path d="m88.696 61.018 0.26693 0.16276q0.95703 0.59245 1.3281 1.1458 0.3776 0.54688 0.3776 1.3672 0 1.224-0.8138 1.888-0.8138 0.66406-2.3047 0.66406-1.4583 0-2.2656-0.66406-0.80078-0.66406-0.80078-1.8685 0-1.8099 1.9531-2.6953-0.94401-0.63151-1.2695-1.0872t-0.32552-1.1393q0-0.8724 0.7487-1.4128 0.7487-0.54688 1.9466-0.54688 1.25 0 1.9922 0.54688 0.74219 0.54688 0.74219 1.4648 0 0.61198-0.31901 1.0742-0.3125 0.46224-1.0807 0.98307zm-1.1328-0.61849q0.67708-0.28646 1.0677-0.67057t0.39062-0.75521q0-0.46875-0.39714-0.7487t-1.0547-0.27995q-0.68359 0-1.0807 0.27344-0.39714 0.26693-0.39714 0.73568 0 0.85938 1.4714 1.4453zm0.01302 1.25-0.26042 0.14323q-0.89193 0.46224-1.237 0.86588-0.34505 0.39714-0.34505 0.96354 0 0.67708 0.51432 1.0872 0.51432 0.40364 1.3737 0.40364 0.8138 0 1.3021-0.39714t0.48828-1.0547q0-0.59245-0.48828-1.1263-0.48828-0.53386-1.3477-0.88542z"/>
  <path d="m95.786 66.142h-1.6862q2.1484-2.0052 3.151-3.5807-0.61849 0.26693-1.1914 0.26693-1.2109 0-2.0378-0.84635-0.82682-0.85286-0.82682-2.0898 0-1.3737 0.85938-2.2135 0.85938-0.84635 2.2526-0.84635 1.4128 0 2.2591 0.85938 0.84636 0.85286 0.84636 2.2852 0 1.3086-0.77474 2.6497-0.76823 1.3346-2.6628 3.3138zm0.52734-8.1706q-0.82682 0-1.3542 0.52083-0.52083 0.52083-0.52083 1.3542 0 0.80078 0.52734 1.3086 0.52734 0.50781 1.3607 0.50781 0.80078 0 1.3151-0.51432 0.51432-0.52083 0.51432-1.3346 0-0.70964-0.46875-1.263-0.49479-0.57943-1.3737-0.57943z"/>
  <path d="m105.17 56.832q1.0026 0 1.543 0.23438 0.54687 0.23438 0.80729 0.78776 0.58593 1.2109 0.58593 3.6979 0 3.1185-0.80729 4.0169-0.61198 0.67708-2.3763 0.67708-1.8294 0-2.3177-0.90495-0.63802-1.1849-0.63802-3.8542 0-2.6758 0.63802-3.776 0.26693-0.46224 0.8724-0.67057 0.61198-0.20833 1.6927-0.20833zm-0.026 1.1719q-0.70313 0-1.0352 0.07813-0.32552 0.07161-0.47526 0.26693-0.17578 0.22786-0.30599 1.1589-0.13021 0.92448-0.13021 1.9727 0 0.8724 0.0977 1.7969 0.10416 0.92448 0.23437 1.2565 0.1237 0.31901 0.42969 0.44922 0.3125 0.13021 0.95052 0.13021 0.73568 0 1.0938-0.09766 0.36458-0.09766 0.48828-0.32552 0.39063-0.74219 0.39063-2.8971 0-1.2695-0.13021-2.2396-0.13021-0.97656-0.34505-1.2435-0.13672-0.17578-0.40365-0.24088-0.26693-0.0651-0.85937-0.0651z"/>
  <path d="m113.65 58.355-2.3503 2.0312v-1.5755l2.2331-1.875h1.3867v9.2057h-1.2695z"/>
  <path d="m120.9 64.963h4.1797v1.1784h-5.4102q-0.0521-0.5013-0.0521-0.73568 0-1.237 0.3711-1.9987 0.29296-0.59896 0.76823-1.0612 0.48177-0.46875 1.4453-1.0742 1.0221-0.65104 1.3737-1.0482 0.35807-0.39714 0.35807-0.88542 0-0.56641-0.4362-0.98958-0.4362-0.42969-1.0221-0.42969-1.3021 0-2.6888 0.96354v-1.3672q1.0807-0.76172 2.513-0.76172 1.3216 0 2.1094 0.6901 0.79427 0.6901 0.79427 1.8359 0 0.82682-0.41016 1.4453-0.2539 0.39062-0.59896 0.67057-0.33854 0.27344-1.4583 0.99609-0.97656 0.63802-1.4062 1.1979t-0.42969 1.1979z"/>
  <path d="m132.35 61.018 0.26693 0.16276q0.95703 0.59245 1.3281 1.1458 0.3776 0.54688 0.3776 1.3672 0 1.224-0.8138 1.888-0.8138 0.66406-2.3047 0.66406-1.4583 0-2.2656-0.66406-0.80078-0.66406-0.80078-1.8685 0-1.8099 1.9531-2.6953-0.94401-0.63151-1.2695-1.0872t-0.32552-1.1393q0-0.8724 0.74869-1.4128 0.7487-0.54688 1.9466-0.54688 1.25 0 1.9922 0.54688 0.74218 0.54688 0.74218 1.4648 0 0.61198-0.31901 1.0742-0.3125 0.46224-1.0807 0.98307zm-1.1328-0.61849q0.67708-0.28646 1.0677-0.67057 0.39062-0.38412 0.39062-0.75521 0-0.46875-0.39713-0.7487-0.39714-0.27995-1.0547-0.27995-0.68359 0-1.0807 0.27344-0.39713 0.26693-0.39713 0.73568 0 0.85938 1.4714 1.4453zm0.013 1.25-0.26042 0.14323q-0.89192 0.46224-1.237 0.86588-0.34506 0.39714-0.34506 0.96354 0 0.67708 0.51433 1.0872 0.51432 0.40364 1.3737 0.40364 0.81381 0 1.3021-0.39714t0.48828-1.0547q0-0.59245-0.48828-1.1263-0.48828-0.53386-1.3477-0.88542z"/>
 </g>
 <g stroke-width="0">
  <rect x="5.61mm" y="1mm" width=".33mm" height="15mm"/>
  <rect x="6.27mm" y="1mm" width=".33mm" height="15mm"/>
  <rect x="7.26mm" y="1mm" width=".33mm" height="13.5mm"/>
  <rect x="8.25mm" y="1mm" width=".66mm" height="13.5mm"/>
  <rect x="9.24mm" y="1mm" width="1.32mm" height="13.5mm"/>
  <rect x="10.89mm" y="1mm" width=".33mm" height="13.5mm"/>
  <rect x="11.88mm" y="1mm" width=".99mm" height="13.5mm"/>
  <rect x="13.2mm" y="1mm" width=".33mm" height="13.5mm"/>
  <rect x="13.86mm" y="1mm" width=".66mm" height="13.5mm"/>
  <rect x="15.51mm" y="1mm" width=".33mm" height="13.5mm"/>
  <rect x="17.16mm" y="1mm" width=".33mm" height="13.5mm"/>
  <rect x="17.82mm" y="1mm" width=".33mm" height="13.5mm"/>
  <rect x="18.81mm" y="1mm" width=".33mm" height="13.5mm"/>
  <rect x="20.13mm" y="1mm" width=".33mm" height="13.5mm"/>
  <rect x="20.79mm" y="1mm" width=".33mm" height="15mm"/>
  <rect x="21.45mm" y="1mm" width=".33mm" height="15mm"/>
  <rect x="22.11mm" y="1mm" width=".33mm" height="13.5mm"/>
  <rect x="23.1mm" y="1mm" width=".33mm" height="13.5mm"/>
  <rect x="24.42mm" y="1mm" width=".99mm" height="13.5mm"/>
  <rect x="25.74mm" y="1mm" width=".33mm" height="13.5mm"/>
  <rect x="26.73mm" y="1mm" width=".99mm" height="13.5mm"/>
  <rect x="28.38mm" y="1mm" width=".33mm" height="13.5mm"/>
  <rect x="29.04mm" y="1mm" width=".66mm" height="13.5mm"/>
  <rect x="30.36mm" y="1mm" width=".66mm" height="13.5mm"/>
  <rect x="31.35mm" y="1mm" width=".66mm" height="13.5mm"/>
  <rect x="32.34mm" y="1mm" width=".66mm" height="13.5mm"/>
  <rect x="33.66mm" y="1mm" width=".33mm" height="13.5mm"/>
  <rect x="34.65mm" y="1mm" width=".33mm" height="13.5mm"/>
  <rect x="35.97mm" y="1mm" width=".33mm" height="15mm"/>
  <rect x="36.63mm" y="1mm" width=".33mm" height="15mm"/>
 </g>
</svg>
