<?xml version="1.0" encoding="UTF-8" standalone="no"?>
<svg
   xml:space="preserve"
   viewBox="0 0 464 464"
   version="1.1"
   id="svg974"
   xmlns="http://www.w3.org/2000/svg"
   xmlns:svg="http://www.w3.org/2000/svg"><defs
     id="defs978" /><g
     id="g972">
<g
   transform="translate(192,32) scale(2.7466666666667)"
   id="g6"><rect
     width="6"
     height="6"
     id="rect4" /></g>
<g
   transform="translate(224,32) scale(2.7466666666667)"
   id="g10"><rect
     width="6"
     height="6"
     id="rect8" /></g>
<g
   transform="translate(240,32) scale(2.7466666666667)"
   id="g14"><rect
     width="6"
     height="6"
     id="rect12" /></g>
<g
   transform="translate(288,32) scale(2.7466666666667)"
   id="g18"><rect
     width="6"
     height="6"
     id="rect16" /></g>
<g
   transform="translate(160,48) scale(2.7466666666667)"
   id="g22"><rect
     width="6"
     height="6"
     id="rect20" /></g>
<g
   transform="translate(192,48) scale(2.7466666666667)"
   id="g26"><rect
     width="6"
     height="6"
     id="rect24" /></g>
<g
   transform="translate(256,48) scale(2.7466666666667)"
   id="g30"><rect
     width="6"
     height="6"
     id="rect28" /></g>
<g
   transform="translate(272,48) scale(2.7466666666667)"
   id="g34"><rect
     width="6"
     height="6"
     id="rect32" /></g>
<g
   transform="translate(288,48) scale(2.7466666666667)"
   id="g38"><rect
     width="6"
     height="6"
     id="rect36" /></g>
<g
   transform="translate(224,64) scale(2.7466666666667)"
   id="g42"><rect
     width="6"
     height="6"
     id="rect40" /></g>
<g
   transform="translate(256,64) scale(2.7466666666667)"
   id="g46"><rect
     width="6"
     height="6"
     id="rect44" /></g>
<g
   transform="translate(288,64) scale(2.7466666666667)"
   id="g50"><rect
     width="6"
     height="6"
     id="rect48" /></g>
<g
   transform="translate(160,80) scale(2.7466666666667)"
   id="g54"><rect
     width="6"
     height="6"
     id="rect52" /></g>
<g
   transform="translate(176,80) scale(2.7466666666667)"
   id="g58"><rect
     width="6"
     height="6"
     id="rect56" /></g>
<g
   transform="translate(192,80) scale(2.7466666666667)"
   id="g62"><rect
     width="6"
     height="6"
     id="rect60" /></g>
<g
   transform="translate(224,80) scale(2.7466666666667)"
   id="g66"><rect
     width="6"
     height="6"
     id="rect64" /></g>
<g
   transform="translate(240,80) scale(2.7466666666667)"
   id="g70"><rect
     width="6"
     height="6"
     id="rect68" /></g>
<g
   transform="translate(176,96) scale(2.7466666666667)"
   id="g74"><rect
     width="6"
     height="6"
     id="rect72" /></g>
<g
   transform="translate(240,96) scale(2.7466666666667)"
   id="g78"><rect
     width="6"
     height="6"
     id="rect76" /></g>
<g
   transform="translate(288,96) scale(2.7466666666667)"
   id="g82"><rect
     width="6"
     height="6"
     id="rect80" /></g>
<g
   transform="translate(160,112) scale(2.7466666666667)"
   id="g86"><rect
     width="6"
     height="6"
     id="rect84" /></g>
<g
   transform="translate(176,112) scale(2.7466666666667)"
   id="g90"><rect
     width="6"
     height="6"
     id="rect88" /></g>
<g
   transform="translate(208,112) scale(2.7466666666667)"
   id="g94"><rect
     width="6"
     height="6"
     id="rect92" /></g>
<g
   transform="translate(224,112) scale(2.7466666666667)"
   id="g98"><rect
     width="6"
     height="6"
     id="rect96" /></g>
<g
   transform="translate(240,112) scale(2.7466666666667)"
   id="g102"><rect
     width="6"
     height="6"
     id="rect100" /></g>
<g
   transform="translate(256,112) scale(2.7466666666667)"
   id="g106"><rect
     width="6"
     height="6"
     id="rect104" /></g>
<g
   transform="translate(272,112) scale(2.7466666666667)"
   id="g110"><rect
     width="6"
     height="6"
     id="rect108" /></g>
<g
   transform="translate(288,112) scale(2.7466666666667)"
   id="g114"><rect
     width="6"
     height="6"
     id="rect112" /></g>
<g
   transform="translate(160,128) scale(2.7466666666667)"
   id="g118"><rect
     width="6"
     height="6"
     id="rect116" /></g>
<g
   transform="translate(192,128) scale(2.7466666666667)"
   id="g122"><rect
     width="6"
     height="6"
     id="rect120" /></g>
<g
   transform="translate(224,128) scale(2.7466666666667)"
   id="g126"><rect
     width="6"
     height="6"
     id="rect124" /></g>
<g
   transform="translate(256,128) scale(2.7466666666667)"
   id="g130"><rect
     width="6"
     height="6"
     id="rect128" /></g>
<g
   transform="translate(288,128) scale(2.7466666666667)"
   id="g134"><rect
     width="6"
     height="6"
     id="rect132" /></g>
<g
   transform="translate(176,144) scale(2.7466666666667)"
   id="g138"><rect
     width="6"
     height="6"
     id="rect136" /></g>
<g
   transform="translate(192,144) scale(2.7466666666667)"
   id="g142"><rect
     width="6"
     height="6"
     id="rect140" /></g>
<g
   transform="translate(208,144) scale(2.7466666666667)"
   id="g146"><rect
     width="6"
     height="6"
     id="rect144" /></g>
<g
   transform="translate(256,144) scale(2.7466666666667)"
   id="g150"><rect
     width="6"
     height="6"
     id="rect148" /></g>
<g
   transform="translate(32,160) scale(2.7466666666667)"
   id="g154"><rect
     width="6"
     height="6"
     id="rect152" /></g>
<g
   transform="translate(48,160) scale(2.7466666666667)"
   id="g158"><rect
     width="6"
     height="6"
     id="rect156" /></g>
<g
   transform="translate(64,160) scale(2.7466666666667)"
   id="g162"><rect
     width="6"
     height="6"
     id="rect160" /></g>
<g
   transform="translate(80,160) scale(2.7466666666667)"
   id="g166"><rect
     width="6"
     height="6"
     id="rect164" /></g>
<g
   transform="translate(96,160) scale(2.7466666666667)"
   id="g170"><rect
     width="6"
     height="6"
     id="rect168" /></g>
<g
   transform="translate(128,160) scale(2.7466666666667)"
   id="g174"><rect
     width="6"
     height="6"
     id="rect172" /></g>
<g
   transform="translate(144,160) scale(2.7466666666667)"
   id="g178"><rect
     width="6"
     height="6"
     id="rect176" /></g>
<g
   transform="translate(160,160) scale(2.7466666666667)"
   id="g182"><rect
     width="6"
     height="6"
     id="rect180" /></g>
<g
   transform="translate(176,160) scale(2.7466666666667)"
   id="g186"><rect
     width="6"
     height="6"
     id="rect184" /></g>
<g
   transform="translate(208,160) scale(2.7466666666667)"
   id="g190"><rect
     width="6"
     height="6"
     id="rect188" /></g>
<g
   transform="translate(240,160) scale(2.7466666666667)"
   id="g194"><rect
     width="6"
     height="6"
     id="rect192" /></g>
<g
   transform="translate(256,160) scale(2.7466666666667)"
   id="g198"><rect
     width="6"
     height="6"
     id="rect196" /></g>
<g
   transform="translate(272,160) scale(2.7466666666667)"
   id="g202"><rect
     width="6"
     height="6"
     id="rect200" /></g>
<g
   transform="translate(304,160) scale(2.7466666666667)"
   id="g206"><rect
     width="6"
     height="6"
     id="rect204" /></g>
<g
   transform="translate(336,160) scale(2.7466666666667)"
   id="g210"><rect
     width="6"
     height="6"
     id="rect208" /></g>
<g
   transform="translate(368,160) scale(2.7466666666667)"
   id="g214"><rect
     width="6"
     height="6"
     id="rect212" /></g>
<g
   transform="translate(400,160) scale(2.7466666666667)"
   id="g218"><rect
     width="6"
     height="6"
     id="rect216" /></g>
<g
   transform="translate(32,176) scale(2.7466666666667)"
   id="g222"><rect
     width="6"
     height="6"
     id="rect220" /></g>
<g
   transform="translate(64,176) scale(2.7466666666667)"
   id="g226"><rect
     width="6"
     height="6"
     id="rect224" /></g>
<g
   transform="translate(80,176) scale(2.7466666666667)"
   id="g230"><rect
     width="6"
     height="6"
     id="rect228" /></g>
<g
   transform="translate(192,176) scale(2.7466666666667)"
   id="g234"><rect
     width="6"
     height="6"
     id="rect232" /></g>
<g
   transform="translate(224,176) scale(2.7466666666667)"
   id="g238"><rect
     width="6"
     height="6"
     id="rect236" /></g>
<g
   transform="translate(240,176) scale(2.7466666666667)"
   id="g242"><rect
     width="6"
     height="6"
     id="rect240" /></g>
<g
   transform="translate(288,176) scale(2.7466666666667)"
   id="g246"><rect
     width="6"
     height="6"
     id="rect244" /></g>
<g
   transform="translate(336,176) scale(2.7466666666667)"
   id="g250"><rect
     width="6"
     height="6"
     id="rect248" /></g>
<g
   transform="translate(400,176) scale(2.7466666666667)"
   id="g254"><rect
     width="6"
     height="6"
     id="rect252" /></g>
<g
   transform="translate(48,192) scale(2.7466666666667)"
   id="g258"><rect
     width="6"
     height="6"
     id="rect256" /></g>
<g
   transform="translate(64,192) scale(2.7466666666667)"
   id="g262"><rect
     width="6"
     height="6"
     id="rect260" /></g>
<g
   transform="translate(128,192) scale(2.7466666666667)"
   id="g266"><rect
     width="6"
     height="6"
     id="rect264" /></g>
<g
   transform="translate(160,192) scale(2.7466666666667)"
   id="g270"><rect
     width="6"
     height="6"
     id="rect268" /></g>
<g
   transform="translate(192,192) scale(2.7466666666667)"
   id="g274"><rect
     width="6"
     height="6"
     id="rect272" /></g>
<g
   transform="translate(272,192) scale(2.7466666666667)"
   id="g278"><rect
     width="6"
     height="6"
     id="rect276" /></g>
<g
   transform="translate(336,192) scale(2.7466666666667)"
   id="g282"><rect
     width="6"
     height="6"
     id="rect280" /></g>
<g
   transform="translate(352,192) scale(2.7466666666667)"
   id="g286"><rect
     width="6"
     height="6"
     id="rect284" /></g>
<g
   transform="translate(368,192) scale(2.7466666666667)"
   id="g290"><rect
     width="6"
     height="6"
     id="rect288" /></g>
<g
   transform="translate(400,192) scale(2.7466666666667)"
   id="g294"><rect
     width="6"
     height="6"
     id="rect292" /></g>
<g
   transform="translate(416,192) scale(2.7466666666667)"
   id="g298"><rect
     width="6"
     height="6"
     id="rect296" /></g>
<g
   transform="translate(48,208) scale(2.7466666666667)"
   id="g302"><rect
     width="6"
     height="6"
     id="rect300" /></g>
<g
   transform="translate(144,208) scale(2.7466666666667)"
   id="g306"><rect
     width="6"
     height="6"
     id="rect304" /></g>
<g
   transform="translate(224,208) scale(2.7466666666667)"
   id="g310"><rect
     width="6"
     height="6"
     id="rect308" /></g>
<g
   transform="translate(256,208) scale(2.7466666666667)"
   id="g314"><rect
     width="6"
     height="6"
     id="rect312" /></g>
<g
   transform="translate(288,208) scale(2.7466666666667)"
   id="g318"><rect
     width="6"
     height="6"
     id="rect316" /></g>
<g
   transform="translate(304,208) scale(2.7466666666667)"
   id="g322"><rect
     width="6"
     height="6"
     id="rect320" /></g>
<g
   transform="translate(320,208) scale(2.7466666666667)"
   id="g326"><rect
     width="6"
     height="6"
     id="rect324" /></g>
<g
   transform="translate(336,208) scale(2.7466666666667)"
   id="g330"><rect
     width="6"
     height="6"
     id="rect328" /></g>
<g
   transform="translate(416,208) scale(2.7466666666667)"
   id="g334"><rect
     width="6"
     height="6"
     id="rect332" /></g>
<g
   transform="translate(32,224) scale(2.7466666666667)"
   id="g338"><rect
     width="6"
     height="6"
     id="rect336" /></g>
<g
   transform="translate(48,224) scale(2.7466666666667)"
   id="g342"><rect
     width="6"
     height="6"
     id="rect340" /></g>
<g
   transform="translate(64,224) scale(2.7466666666667)"
   id="g346"><rect
     width="6"
     height="6"
     id="rect344" /></g>
<g
   transform="translate(128,224) scale(2.7466666666667)"
   id="g350"><rect
     width="6"
     height="6"
     id="rect348" /></g>
<g
   transform="translate(144,224) scale(2.7466666666667)"
   id="g354"><rect
     width="6"
     height="6"
     id="rect352" /></g>
<g
   transform="translate(160,224) scale(2.7466666666667)"
   id="g358"><rect
     width="6"
     height="6"
     id="rect356" /></g>
<g
   transform="translate(176,224) scale(2.7466666666667)"
   id="g362"><rect
     width="6"
     height="6"
     id="rect360" /></g>
<g
   transform="translate(192,224) scale(2.7466666666667)"
   id="g366"><rect
     width="6"
     height="6"
     id="rect364" /></g>
<g
   transform="translate(224,224) scale(2.7466666666667)"
   id="g370"><rect
     width="6"
     height="6"
     id="rect368" /></g>
<g
   transform="translate(240,224) scale(2.7466666666667)"
   id="g374"><rect
     width="6"
     height="6"
     id="rect372" /></g>
<g
   transform="translate(256,224) scale(2.7466666666667)"
   id="g378"><rect
     width="6"
     height="6"
     id="rect376" /></g>
<g
   transform="translate(304,224) scale(2.7466666666667)"
   id="g382"><rect
     width="6"
     height="6"
     id="rect380" /></g>
<g
   transform="translate(320,224) scale(2.7466666666667)"
   id="g386"><rect
     width="6"
     height="6"
     id="rect384" /></g>
<g
   transform="translate(352,224) scale(2.7466666666667)"
   id="g390"><rect
     width="6"
     height="6"
     id="rect388" /></g>
<g
   transform="translate(384,224) scale(2.7466666666667)"
   id="g394"><rect
     width="6"
     height="6"
     id="rect392" /></g>
<g
   transform="translate(400,224) scale(2.7466666666667)"
   id="g398"><rect
     width="6"
     height="6"
     id="rect396" /></g>
<g
   transform="translate(416,224) scale(2.7466666666667)"
   id="g402"><rect
     width="6"
     height="6"
     id="rect400" /></g>
<g
   transform="translate(32,240) scale(2.7466666666667)"
   id="g406"><rect
     width="6"
     height="6"
     id="rect404" /></g>
<g
   transform="translate(48,240) scale(2.7466666666667)"
   id="g410"><rect
     width="6"
     height="6"
     id="rect408" /></g>
<g
   transform="translate(96,240) scale(2.7466666666667)"
   id="g414"><rect
     width="6"
     height="6"
     id="rect412" /></g>
<g
   transform="translate(112,240) scale(2.7466666666667)"
   id="g418"><rect
     width="6"
     height="6"
     id="rect416" /></g>
<g
   transform="translate(144,240) scale(2.7466666666667)"
   id="g422"><rect
     width="6"
     height="6"
     id="rect420" /></g>
<g
   transform="translate(160,240) scale(2.7466666666667)"
   id="g426"><rect
     width="6"
     height="6"
     id="rect424" /></g>
<g
   transform="translate(176,240) scale(2.7466666666667)"
   id="g430"><rect
     width="6"
     height="6"
     id="rect428" /></g>
<g
   transform="translate(240,240) scale(2.7466666666667)"
   id="g434"><rect
     width="6"
     height="6"
     id="rect432" /></g>
<g
   transform="translate(304,240) scale(2.7466666666667)"
   id="g438"><rect
     width="6"
     height="6"
     id="rect436" /></g>
<g
   transform="translate(336,240) scale(2.7466666666667)"
   id="g442"><rect
     width="6"
     height="6"
     id="rect440" /></g>
<g
   transform="translate(368,240) scale(2.7466666666667)"
   id="g446"><rect
     width="6"
     height="6"
     id="rect444" /></g>
<g
   transform="translate(400,240) scale(2.7466666666667)"
   id="g450"><rect
     width="6"
     height="6"
     id="rect448" /></g>
<g
   transform="translate(32,256) scale(2.7466666666667)"
   id="g454"><rect
     width="6"
     height="6"
     id="rect452" /></g>
<g
   transform="translate(64,256) scale(2.7466666666667)"
   id="g458"><rect
     width="6"
     height="6"
     id="rect456" /></g>
<g
   transform="translate(128,256) scale(2.7466666666667)"
   id="g462"><rect
     width="6"
     height="6"
     id="rect460" /></g>
<g
   transform="translate(144,256) scale(2.7466666666667)"
   id="g466"><rect
     width="6"
     height="6"
     id="rect464" /></g>
<g
   transform="translate(176,256) scale(2.7466666666667)"
   id="g470"><rect
     width="6"
     height="6"
     id="rect468" /></g>
<g
   transform="translate(192,256) scale(2.7466666666667)"
   id="g474"><rect
     width="6"
     height="6"
     id="rect472" /></g>
<g
   transform="translate(208,256) scale(2.7466666666667)"
   id="g478"><rect
     width="6"
     height="6"
     id="rect476" /></g>
<g
   transform="translate(224,256) scale(2.7466666666667)"
   id="g482"><rect
     width="6"
     height="6"
     id="rect480" /></g>
<g
   transform="translate(240,256) scale(2.7466666666667)"
   id="g486"><rect
     width="6"
     height="6"
     id="rect484" /></g>
<g
   transform="translate(256,256) scale(2.7466666666667)"
   id="g490"><rect
     width="6"
     height="6"
     id="rect488" /></g>
<g
   transform="translate(272,256) scale(2.7466666666667)"
   id="g494"><rect
     width="6"
     height="6"
     id="rect492" /></g>
<g
   transform="translate(304,256) scale(2.7466666666667)"
   id="g498"><rect
     width="6"
     height="6"
     id="rect496" /></g>
<g
   transform="translate(320,256) scale(2.7466666666667)"
   id="g502"><rect
     width="6"
     height="6"
     id="rect500" /></g>
<g
   transform="translate(336,256) scale(2.7466666666667)"
   id="g506"><rect
     width="6"
     height="6"
     id="rect504" /></g>
<g
   transform="translate(352,256) scale(2.7466666666667)"
   id="g510"><rect
     width="6"
     height="6"
     id="rect508" /></g>
<g
   transform="translate(368,256) scale(2.7466666666667)"
   id="g514"><rect
     width="6"
     height="6"
     id="rect512" /></g>
<g
   transform="translate(400,256) scale(2.7466666666667)"
   id="g518"><rect
     width="6"
     height="6"
     id="rect516" /></g>
<g
   transform="translate(416,256) scale(2.7466666666667)"
   id="g522"><rect
     width="6"
     height="6"
     id="rect520" /></g>
<g
   transform="translate(32,272) scale(2.7466666666667)"
   id="g526"><rect
     width="6"
     height="6"
     id="rect524" /></g>
<g
   transform="translate(64,272) scale(2.7466666666667)"
   id="g530"><rect
     width="6"
     height="6"
     id="rect528" /></g>
<g
   transform="translate(80,272) scale(2.7466666666667)"
   id="g534"><rect
     width="6"
     height="6"
     id="rect532" /></g>
<g
   transform="translate(96,272) scale(2.7466666666667)"
   id="g538"><rect
     width="6"
     height="6"
     id="rect536" /></g>
<g
   transform="translate(144,272) scale(2.7466666666667)"
   id="g542"><rect
     width="6"
     height="6"
     id="rect540" /></g>
<g
   transform="translate(160,272) scale(2.7466666666667)"
   id="g546"><rect
     width="6"
     height="6"
     id="rect544" /></g>
<g
   transform="translate(176,272) scale(2.7466666666667)"
   id="g550"><rect
     width="6"
     height="6"
     id="rect548" /></g>
<g
   transform="translate(192,272) scale(2.7466666666667)"
   id="g554"><rect
     width="6"
     height="6"
     id="rect552" /></g>
<g
   transform="translate(208,272) scale(2.7466666666667)"
   id="g558"><rect
     width="6"
     height="6"
     id="rect556" /></g>
<g
   transform="translate(320,272) scale(2.7466666666667)"
   id="g562"><rect
     width="6"
     height="6"
     id="rect560" /></g>
<g
   transform="translate(336,272) scale(2.7466666666667)"
   id="g566"><rect
     width="6"
     height="6"
     id="rect564" /></g>
<g
   transform="translate(352,272) scale(2.7466666666667)"
   id="g570"><rect
     width="6"
     height="6"
     id="rect568" /></g>
<g
   transform="translate(416,272) scale(2.7466666666667)"
   id="g574"><rect
     width="6"
     height="6"
     id="rect572" /></g>
<g
   transform="translate(32,288) scale(2.7466666666667)"
   id="g578"><rect
     width="6"
     height="6"
     id="rect576" /></g>
<g
   transform="translate(64,288) scale(2.7466666666667)"
   id="g582"><rect
     width="6"
     height="6"
     id="rect580" /></g>
<g
   transform="translate(80,288) scale(2.7466666666667)"
   id="g586"><rect
     width="6"
     height="6"
     id="rect584" /></g>
<g
   transform="translate(96,288) scale(2.7466666666667)"
   id="g590"><rect
     width="6"
     height="6"
     id="rect588" /></g>
<g
   transform="translate(128,288) scale(2.7466666666667)"
   id="g594"><rect
     width="6"
     height="6"
     id="rect592" /></g>
<g
   transform="translate(144,288) scale(2.7466666666667)"
   id="g598"><rect
     width="6"
     height="6"
     id="rect596" /></g>
<g
   transform="translate(160,288) scale(2.7466666666667)"
   id="g602"><rect
     width="6"
     height="6"
     id="rect600" /></g>
<g
   transform="translate(208,288) scale(2.7466666666667)"
   id="g606"><rect
     width="6"
     height="6"
     id="rect604" /></g>
<g
   transform="translate(224,288) scale(2.7466666666667)"
   id="g610"><rect
     width="6"
     height="6"
     id="rect608" /></g>
<g
   transform="translate(240,288) scale(2.7466666666667)"
   id="g614"><rect
     width="6"
     height="6"
     id="rect612" /></g>
<g
   transform="translate(256,288) scale(2.7466666666667)"
   id="g618"><rect
     width="6"
     height="6"
     id="rect616" /></g>
<g
   transform="translate(272,288) scale(2.7466666666667)"
   id="g622"><rect
     width="6"
     height="6"
     id="rect620" /></g>
<g
   transform="translate(288,288) scale(2.7466666666667)"
   id="g626"><rect
     width="6"
     height="6"
     id="rect624" /></g>
<g
   transform="translate(304,288) scale(2.7466666666667)"
   id="g630"><rect
     width="6"
     height="6"
     id="rect628" /></g>
<g
   transform="translate(320,288) scale(2.7466666666667)"
   id="g634"><rect
     width="6"
     height="6"
     id="rect632" /></g>
<g
   transform="translate(336,288) scale(2.7466666666667)"
   id="g638"><rect
     width="6"
     height="6"
     id="rect636" /></g>
<g
   transform="translate(352,288) scale(2.7466666666667)"
   id="g642"><rect
     width="6"
     height="6"
     id="rect640" /></g>
<g
   transform="translate(384,288) scale(2.7466666666667)"
   id="g646"><rect
     width="6"
     height="6"
     id="rect644" /></g>
<g
   transform="translate(160,304) scale(2.7466666666667)"
   id="g650"><rect
     width="6"
     height="6"
     id="rect648" /></g>
<g
   transform="translate(224,304) scale(2.7466666666667)"
   id="g654"><rect
     width="6"
     height="6"
     id="rect652" /></g>
<g
   transform="translate(240,304) scale(2.7466666666667)"
   id="g658"><rect
     width="6"
     height="6"
     id="rect656" /></g>
<g
   transform="translate(272,304) scale(2.7466666666667)"
   id="g662"><rect
     width="6"
     height="6"
     id="rect660" /></g>
<g
   transform="translate(288,304) scale(2.7466666666667)"
   id="g666"><rect
     width="6"
     height="6"
     id="rect664" /></g>
<g
   transform="translate(352,304) scale(2.7466666666667)"
   id="g670"><rect
     width="6"
     height="6"
     id="rect668" /></g>
<g
   transform="translate(368,304) scale(2.7466666666667)"
   id="g674"><rect
     width="6"
     height="6"
     id="rect672" /></g>
<g
   transform="translate(160,320) scale(2.7466666666667)"
   id="g678"><rect
     width="6"
     height="6"
     id="rect676" /></g>
<g
   transform="translate(192,320) scale(2.7466666666667)"
   id="g682"><rect
     width="6"
     height="6"
     id="rect680" /></g>
<g
   transform="translate(240,320) scale(2.7466666666667)"
   id="g686"><rect
     width="6"
     height="6"
     id="rect684" /></g>
<g
   transform="translate(256,320) scale(2.7466666666667)"
   id="g690"><rect
     width="6"
     height="6"
     id="rect688" /></g>
<g
   transform="translate(288,320) scale(2.7466666666667)"
   id="g694"><rect
     width="6"
     height="6"
     id="rect692" /></g>
<g
   transform="translate(320,320) scale(2.7466666666667)"
   id="g698"><rect
     width="6"
     height="6"
     id="rect696" /></g>
<g
   transform="translate(352,320) scale(2.7466666666667)"
   id="g702"><rect
     width="6"
     height="6"
     id="rect700" /></g>
<g
   transform="translate(384,320) scale(2.7466666666667)"
   id="g706"><rect
     width="6"
     height="6"
     id="rect704" /></g>
<g
   transform="translate(400,320) scale(2.7466666666667)"
   id="g710"><rect
     width="6"
     height="6"
     id="rect708" /></g>
<g
   transform="translate(416,320) scale(2.7466666666667)"
   id="g714"><rect
     width="6"
     height="6"
     id="rect712" /></g>
<g
   transform="translate(176,336) scale(2.7466666666667)"
   id="g718"><rect
     width="6"
     height="6"
     id="rect716" /></g>
<g
   transform="translate(192,336) scale(2.7466666666667)"
   id="g722"><rect
     width="6"
     height="6"
     id="rect720" /></g>
<g
   transform="translate(256,336) scale(2.7466666666667)"
   id="g726"><rect
     width="6"
     height="6"
     id="rect724" /></g>
<g
   transform="translate(288,336) scale(2.7466666666667)"
   id="g730"><rect
     width="6"
     height="6"
     id="rect728" /></g>
<g
   transform="translate(352,336) scale(2.7466666666667)"
   id="g734"><rect
     width="6"
     height="6"
     id="rect732" /></g>
<g
   transform="translate(368,336) scale(2.7466666666667)"
   id="g738"><rect
     width="6"
     height="6"
     id="rect736" /></g>
<g
   transform="translate(400,336) scale(2.7466666666667)"
   id="g742"><rect
     width="6"
     height="6"
     id="rect740" /></g>
<g
   transform="translate(416,336) scale(2.7466666666667)"
   id="g746"><rect
     width="6"
     height="6"
     id="rect744" /></g>
<g
   transform="translate(160,352) scale(2.7466666666667)"
   id="g750"><rect
     width="6"
     height="6"
     id="rect748" /></g>
<g
   transform="translate(192,352) scale(2.7466666666667)"
   id="g754"><rect
     width="6"
     height="6"
     id="rect752" /></g>
<g
   transform="translate(224,352) scale(2.7466666666667)"
   id="g758"><rect
     width="6"
     height="6"
     id="rect756" /></g>
<g
   transform="translate(240,352) scale(2.7466666666667)"
   id="g762"><rect
     width="6"
     height="6"
     id="rect760" /></g>
<g
   transform="translate(256,352) scale(2.7466666666667)"
   id="g766"><rect
     width="6"
     height="6"
     id="rect764" /></g>
<g
   transform="translate(272,352) scale(2.7466666666667)"
   id="g770"><rect
     width="6"
     height="6"
     id="rect768" /></g>
<g
   transform="translate(288,352) scale(2.7466666666667)"
   id="g774"><rect
     width="6"
     height="6"
     id="rect772" /></g>
<g
   transform="translate(304,352) scale(2.7466666666667)"
   id="g778"><rect
     width="6"
     height="6"
     id="rect776" /></g>
<g
   transform="translate(320,352) scale(2.7466666666667)"
   id="g782"><rect
     width="6"
     height="6"
     id="rect780" /></g>
<g
   transform="translate(336,352) scale(2.7466666666667)"
   id="g786"><rect
     width="6"
     height="6"
     id="rect784" /></g>
<g
   transform="translate(352,352) scale(2.7466666666667)"
   id="g790"><rect
     width="6"
     height="6"
     id="rect788" /></g>
<g
   transform="translate(384,352) scale(2.7466666666667)"
   id="g794"><rect
     width="6"
     height="6"
     id="rect792" /></g>
<g
   transform="translate(160,368) scale(2.7466666666667)"
   id="g798"><rect
     width="6"
     height="6"
     id="rect796" /></g>
<g
   transform="translate(176,368) scale(2.7466666666667)"
   id="g802"><rect
     width="6"
     height="6"
     id="rect800" /></g>
<g
   transform="translate(208,368) scale(2.7466666666667)"
   id="g806"><rect
     width="6"
     height="6"
     id="rect804" /></g>
<g
   transform="translate(256,368) scale(2.7466666666667)"
   id="g810"><rect
     width="6"
     height="6"
     id="rect808" /></g>
<g
   transform="translate(304,368) scale(2.7466666666667)"
   id="g814"><rect
     width="6"
     height="6"
     id="rect812" /></g>
<g
   transform="translate(320,368) scale(2.7466666666667)"
   id="g818"><rect
     width="6"
     height="6"
     id="rect816" /></g>
<g
   transform="translate(352,368) scale(2.7466666666667)"
   id="g822"><rect
     width="6"
     height="6"
     id="rect820" /></g>
<g
   transform="translate(368,368) scale(2.7466666666667)"
   id="g826"><rect
     width="6"
     height="6"
     id="rect824" /></g>
<g
   transform="translate(384,368) scale(2.7466666666667)"
   id="g830"><rect
     width="6"
     height="6"
     id="rect828" /></g>
<g
   transform="translate(400,368) scale(2.7466666666667)"
   id="g834"><rect
     width="6"
     height="6"
     id="rect832" /></g>
<g
   transform="translate(416,368) scale(2.7466666666667)"
   id="g838"><rect
     width="6"
     height="6"
     id="rect836" /></g>
<g
   transform="translate(160,384) scale(2.7466666666667)"
   id="g842"><rect
     width="6"
     height="6"
     id="rect840" /></g>
<g
   transform="translate(176,384) scale(2.7466666666667)"
   id="g846"><rect
     width="6"
     height="6"
     id="rect844" /></g>
<g
   transform="translate(240,384) scale(2.7466666666667)"
   id="g850"><rect
     width="6"
     height="6"
     id="rect848" /></g>
<g
   transform="translate(256,384) scale(2.7466666666667)"
   id="g854"><rect
     width="6"
     height="6"
     id="rect852" /></g>
<g
   transform="translate(368,384) scale(2.7466666666667)"
   id="g858"><rect
     width="6"
     height="6"
     id="rect856" /></g>
<g
   transform="translate(384,384) scale(2.7466666666667)"
   id="g862"><rect
     width="6"
     height="6"
     id="rect860" /></g>
<g
   transform="translate(416,384) scale(2.7466666666667)"
   id="g866"><rect
     width="6"
     height="6"
     id="rect864" /></g>
<g
   transform="translate(160,400) scale(2.7466666666667)"
   id="g870"><rect
     width="6"
     height="6"
     id="rect868" /></g>
<g
   transform="translate(288,400) scale(2.7466666666667)"
   id="g874"><rect
     width="6"
     height="6"
     id="rect872" /></g>
<g
   transform="translate(336,400) scale(2.7466666666667)"
   id="g878"><rect
     width="6"
     height="6"
     id="rect876" /></g>
<g
   transform="translate(352,400) scale(2.7466666666667)"
   id="g882"><rect
     width="6"
     height="6"
     id="rect880" /></g>
<g
   transform="translate(368,400) scale(2.7466666666667)"
   id="g886"><rect
     width="6"
     height="6"
     id="rect884" /></g>
<g
   transform="translate(416,400) scale(2.7466666666667)"
   id="g890"><rect
     width="6"
     height="6"
     id="rect888" /></g>
<g
   transform="translate(160,416) scale(2.7466666666667)"
   id="g894"><rect
     width="6"
     height="6"
     id="rect892" /></g>
<g
   transform="translate(176,416) scale(2.7466666666667)"
   id="g898"><rect
     width="6"
     height="6"
     id="rect896" /></g>
<g
   transform="translate(240,416) scale(2.7466666666667)"
   id="g902"><rect
     width="6"
     height="6"
     id="rect900" /></g>
<g
   transform="translate(256,416) scale(2.7466666666667)"
   id="g906"><rect
     width="6"
     height="6"
     id="rect904" /></g>
<g
   transform="translate(320,416) scale(2.7466666666667)"
   id="g910"><rect
     width="6"
     height="6"
     id="rect908" /></g>
<g
   transform="translate(336,416) scale(2.7466666666667)"
   id="g914"><rect
     width="6"
     height="6"
     id="rect912" /></g>
<g
   transform="translate(352,416) scale(2.7466666666667)"
   id="g918"><rect
     width="6"
     height="6"
     id="rect916" /></g>
<g
   transform="translate(368,416) scale(2.7466666666667)"
   id="g922"><rect
     width="6"
     height="6"
     id="rect920" /></g>
<g
   transform="translate(384,416) scale(2.7466666666667)"
   id="g926"><rect
     width="6"
     height="6"
     id="rect924" /></g>
<g
   transform="translate(400,416) scale(2.7466666666667)"
   id="g930"><rect
     width="6"
     height="6"
     id="rect928" /></g>
<g
   transform="translate(416,416) scale(2.7466666666667)"
   id="g934"><rect
     width="6"
     height="6"
     id="rect932" /></g>
<g
   transform="translate(32,32)"
   id="g940"><g
     transform="scale(8)"
     id="g938"><path
       d="M0,0v14h14V0H0z M12,12H2V2h10V12z"
       id="path936" /></g></g>
<g
   transform="translate(320,32)"
   id="g946"><g
     transform="scale(8)"
     id="g944"><path
       d="M0,0v14h14V0H0z M12,12H2V2h10V12z"
       id="path942" /></g></g>
<g
   transform="translate(32,320)"
   id="g952"><g
     transform="scale(8)"
     id="g950"><path
       d="M0,0v14h14V0H0z M12,12H2V2h10V12z"
       id="path948" /></g></g>
<g
   transform="translate(64,64)"
   id="g958"><g
     transform="scale(8)"
     id="g956"><rect
       width="6"
       height="6"
       id="rect954" /></g></g>
<g
   transform="translate(352,64)"
   id="g964"><g
     transform="scale(8)"
     id="g962"><rect
       width="6"
       height="6"
       id="rect960" /></g></g>
<g
   transform="translate(64,352)"
   id="g970"><g
     transform="scale(8)"
     id="g968"><rect
       width="6"
       height="6"
       id="rect966" /></g></g>
</g></svg>
